<svg xmlns="http://www.w3.org/2000/svg" width="1600" height="900" viewBox="0 0 1600 900" role="img" aria-labelledby="title desc">
  <title id="title">生成AIを活用した問い合わせ対応業務の効率化提案</title>
  <desc id="desc">企業向けプレゼンテーションの表紙サムネイル</desc>
  <rect width="1600" height="900" fill="#F6F7F4"/>
  <rect x="0" y="0" width="58" height="900" fill="#DDECC7"/>
  <circle cx="1320" cy="176" r="176" fill="#E8F0DF"/>
  <circle cx="1432" cy="690" r="286" fill="#EEF3EA"/>
  <rect x="104" y="102" width="190" height="6" rx="3" fill="#7C9F4B"/>
  <text x="104" y="168" font-family="Inter, Noto Sans JP, sans-serif" font-size="26" font-weight="600" fill="#6B7864" letter-spacing="3">BUSINESS PROPOSAL</text>
  <text x="104" y="322" font-family="Inter, Noto Sans JP, sans-serif" font-size="72" font-weight="700" fill="#172018">生成AIを活用した</text>
  <text x="104" y="424" font-family="Inter, Noto Sans JP, sans-serif" font-size="72" font-weight="700" fill="#172018">問い合わせ対応業務</text>
  <text x="104" y="526" font-family="Inter, Noto Sans JP, sans-serif" font-size="72" font-weight="700" fill="#172018">効率化提案</text>
  <text x="108" y="610" font-family="Inter, Noto Sans JP, sans-serif" font-size="28" fill="#657064">AIと人間の役割分担で、一次対応フローを再設計する</text>
  <rect x="104" y="688" width="420" height="1" fill="#C7CDC1"/>
  <text x="104" y="738" font-family="Inter, Noto Sans JP, sans-serif" font-size="21" fill="#7B8477">Presentation Design / 7 Slides / 2026</text>
  <g transform="translate(1160 330)">
    <rect x="0" y="0" width="278" height="190" rx="14" fill="#FFFFFF" stroke="#B9C6AD" stroke-width="2"/>
    <rect x="26" y="28" width="95" height="16" rx="8" fill="#DDECC7"/>
    <rect x="26" y="64" width="194" height="12" rx="6" fill="#D6DCD1"/>
    <rect x="26" y="90" width="156" height="12" rx="6" fill="#D6DCD1"/>
    <rect x="26" y="126" width="82" height="38" rx="19" fill="#7C9F4B"/>
    <path d="M124 145 H213" stroke="#9AA592" stroke-width="4" stroke-linecap="round"/>
    <path d="M205 137 L217 145 L205 153" fill="none" stroke="#9AA592" stroke-width="4" stroke-linecap="round" stroke-linejoin="round"/>
  </g>
</svg>
